<?xml version="1.0" encoding="utf-8"?>
<!-- Generator: Adobe Illustrator 22.1.0, SVG Export Plug-In . SVG Version: 6.00 Build 0)  -->
<svg version="1.1" id="Layer_1" xmlns="http://www.w3.org/2000/svg" xmlns:xlink="http://www.w3.org/1999/xlink" x="0px" y="0px"
	 viewBox="0 0 393 66" style="enable-background:new 0 0 393 66;" xml:space="preserve">
<style type="text/css">
	.st0{fill:#FFFFFF;}
</style>
<g>
	<g>
		<g>
			<path class="st0" d="M208.1,60.7c-2.2,2.7-5.7,4.1-10.5,4.1s-8.4-1.4-10.6-4.1c-2.2-2.7-3.3-7-3.3-12.7V1.2h9.6v46.6
				c0,3.3,0.2,5.3,0.5,6c0.3,0.7,0.7,1.4,1.1,1.9c0.4,0.6,1.3,0.9,2.7,0.9c1.4,0,2.4-0.4,3-1.2c0.6-0.8,1-1.8,1.1-3s0.2-2.7,0.2-4.6
				V1.2h9.6v46.7C211.4,53.7,210.3,57.9,208.1,60.7z"/>
		</g>
		<g>
			<path class="st0" d="M220.5,64V1.2h14.4c4.9,0,8.2,1.5,10,4.4c1.8,3,2.7,7.4,2.8,13.3v1.3c0,6.2-0.9,11-2.7,14.2
				c-1.8,3.2-5.1,4.8-9.9,4.8H230v24.8L220.5,64L220.5,64z M230,31.4h3.3c2,0,3.3-0.8,3.9-2.3c0.6-1.6,0.9-4.5,0.9-8.9v-1.2
				c0-3.7-0.3-6.4-1-8c-0.6-1.6-1.9-2.4-3.8-2.4H230V31.4z"/>
		</g>
		<g>
			<path class="st0" d="M257.3,64V9.5H250V1.2h23.9v8.3h-7.1V64H257.3z"/>
		</g>
		<g>
			<path class="st0" d="M302.9,60.2c-2.2,3-5.7,4.5-10.5,4.5c-4.8,0-8.3-1.5-10.6-4.6c-2.2-3-3.4-7.6-3.4-13.7V17.7
				c0-11.5,4.7-17.3,14.1-17.3c4.8,0,8.3,1.5,10.5,4.4c2.1,2.9,3.2,7.2,3.2,12.9v28.7C306.1,52.6,305,57.2,302.9,60.2z M288.9,54.3
				c0.6,1.5,1.7,2.2,3.4,2.2s2.9-0.7,3.4-2.2c0.5-1.5,0.8-4,0.8-7.7V17.3c0-3-0.3-5.1-0.8-6.5c-0.6-1.4-1.7-2.1-3.3-2.1
				c-1.6,0-2.8,0.7-3.4,2.1c-0.7,1.4-1,3.5-1,6.5v29.3C288,50.3,288.3,52.8,288.9,54.3z"/>
		</g>
		<g>
			<path class="st0" d="M319.9,64l-7.7-62.8h8.6l4.6,44.8l5.9-44.8h7.7l5.9,44.8l4.1-44.8h8.6L350.3,64h-9.5l-5.6-41.8L329.4,64
				H319.9z"/>
		</g>
		<g>
			<path class="st0" d="M364.3,64V1.2h7.5l13.3,37.7l-0.7-17.1V1.2h8.6V64h-6.8l-13.7-39l0.5,16.5V64L364.3,64L364.3,64z"/>
		</g>
	</g>
	<g>
		<path class="st0" d="M159.7,1.4h0.5l12.6,27.9h-6l-1.3-3.1h-11.2l-1.3,3.1h-5.5L159.7,1.4z M163.5,21.4l-2-4.8
			c-0.8-1.9-1.7-5-1.7-5s-0.8,3-1.6,5l-2,4.8H163.5z"/>
	</g>
	<g>
		<path class="st0" d="M157.3,41.6h-7.9v-5h21.4v5H163v22.6h-5.7L157.3,41.6L157.3,41.6z"/>
	</g>
	<path class="st0" d="M9.8,56.9V0.8H0v64.5h22.2v-8.4H9.8z M18.7,61.6H4.4V4.3h1v56.2h13.3V61.6z"/>
	<g>
		<path class="st0" d="M38.7,4.6c-4.7,0-8.6,3.9-8.6,8.6v39.4c0,4.8,3.9,8.6,8.6,8.6s8.6-3.9,8.6-8.6V13.2
			C47.3,8.5,43.4,4.6,38.7,4.6z M43.1,47.3c0,3.7-0.3,6.3-0.8,7.9c-0.6,1.5-1.7,2.3-3.5,2.3c-1.8,0-3-0.7-3.5-2.2
			c-0.6-1.5-0.9-4.1-0.9-7.9V17.3c0-3,0.3-5.2,1-6.7c0.7-1.4,1.8-2.1,3.5-2.1c1.7,0,2.8,0.7,3.4,2.1c0.6,1.4,0.9,3.6,0.9,6.7
			L43.1,47.3L43.1,47.3z"/>
		<path class="st0" d="M49.6,4.5C47.4,1.5,43.9,0,38.9,0c-9.6,0-14.5,5.9-14.5,17.7v29.5c0,6.3,1.2,11,3.5,14.1
			c2.3,3.1,5.9,4.7,10.9,4.7s8.5-1.5,10.8-4.7c2.2-3.1,3.4-7.8,3.4-14.1V17.7C52.9,11.9,51.8,7.5,49.6,4.5z M48.3,52.6
			c0,5.3-4.3,9.6-9.6,9.6s-9.6-4.3-9.6-9.6V13.2c0-5.3,4.3-9.6,9.6-9.6s9.6,4.3,9.6,9.6V52.6z"/>
	</g>
	<path class="st0" d="M81.2,9.3V0.8H59.1v64.5H69V35h11.4v-8.6H69V9.3L81.2,9.3L81.2,9.3z M76.9,30.1v1H64.6v30.6h-1V4.4h14.1v1
		H64.6v24.7H76.9z"/>
	<path class="st0" d="M84.4,0.8v8.5H92v56h9.8v-56h7.2V0.8H84.4z M105.5,5.4h-8.2v56.3h-1V5.4H88v-1h17.4L105.5,5.4L105.5,5.4z"/>
	<path class="st0" d="M137.2,38.6c-1.4-3-3.4-5.9-6-8.8l-5.3-5.8c-1.8-1.9-3-3.5-3.7-4.7c-0.7-1.2-1-2.9-1-4.9c0-2.1,0.3-3.6,1-4.6
		c0.7-1,1.8-1.5,3.3-1.5s2.6,0.7,3.1,2c0.5,1.4,0.8,3.6,0.8,6.7v4.6h9v-4c0-5.8-0.9-10.2-2.7-13.2c-1.8-3-5.2-4.5-10.2-4.5
		c-5,0-8.5,1.3-10.6,3.9c-2.1,2.6-3.1,6.5-3.1,11.9c0,3.3,0.6,6.2,1.8,8.6c1.2,2.5,3,4.9,5.2,7.2l4.8,4.9c2.1,2.2,3.7,4.3,4.6,6.3
		c1,2,1.5,4.4,1.5,7.1c0,2.7-0.3,4.7-0.8,5.9c-0.6,1.2-1.7,1.8-3.3,1.8s-2.8-0.7-3.4-2.2c-0.6-1.5-0.9-4-0.9-7.6v-6.5H112v5.8
		c0,6.2,1,10.8,3,14.1c2,3.2,5.5,4.8,10.6,4.8c5.1,0,8.6-1.4,10.6-4.3c2-2.9,3-7.3,3-13.4C139.2,44.8,138.6,41.6,137.2,38.6z
		 M133.8,58.5c-1.7,2.5-4.3,3.7-8,3.7c-9.8,0-9.8-9.6-9.8-17.3h1c0,9.5,0.6,16.3,8.8,16.3c3.3,0,5.7-1.1,7.1-3.3
		c3-4.5,1.5-12.4-0.2-16.4c-2.1-5-6.7-9.9-10.5-13.9c-2.6-2.8-4.7-5-5.3-6.6c-1-2.7-1.7-9.8,1.2-14c1.5-2.2,3.9-3.4,6.9-3.4
		c2.8,0,5,0.8,6.6,2.4c3,3.1,2.9,8.4,2.9,11.2c0,0.4,0,0.7,0,0.9h-1c0-0.3,0-0.6,0-0.9c0.1-2.7,0.2-7.7-2.6-10.5
		c-1.4-1.4-3.3-2.1-5.9-2.1c-2.7,0-4.7,1-6.1,2.9c-2.7,3.9-2,10.6-1.1,13.1c0.5,1.4,2.6,3.6,5.1,6.3c3.8,4,8.5,9.1,10.7,14.2
		C135.5,45.5,137,53.6,133.8,58.5z"/>
</g>
</svg>
