<?xml version="1.0" encoding="utf-8"?>
<!-- Generator: Adobe Illustrator 22.1.0, SVG Export Plug-In . SVG Version: 6.00 Build 0)  -->
<svg version="1.1" id="Layer_1" xmlns="http://www.w3.org/2000/svg" xmlns:xlink="http://www.w3.org/1999/xlink" x="0px" y="0px"
	 viewBox="0 0 212 24" style="enable-background:new 0 0 212 24;" xml:space="preserve">
<style type="text/css">
	.st0{fill:#FFFFFF;}
</style>
<path class="st0" d="M86,11.3h2.3c0.6,0,1-0.1,1.4-0.2c0.4-0.1,0.7-0.3,0.9-0.5c0.2-0.2,0.3-0.5,0.4-0.7c0.1-0.3,0.1-0.5,0.1-0.7
	S91,8.8,90.9,8.5c-0.1-0.3-0.2-0.5-0.4-0.7c-0.2-0.2-0.5-0.4-0.9-0.5c-0.4-0.1-0.9-0.2-1.4-0.2H86V11.3z M84.8,6.1h3.1h0.7
	c0.3,0,0.5,0.1,0.9,0.1c0.3,0.1,0.7,0.1,0.9,0.3c0.3,0.1,0.6,0.3,0.9,0.5c0.3,0.3,0.5,0.5,0.7,0.9c0.2,0.3,0.3,0.8,0.3,1.3
	c0,0.6-0.1,1-0.3,1.4c-0.2,0.4-0.5,0.6-0.7,0.9c-0.3,0.2-0.6,0.4-1,0.5c-0.3,0.1-0.7,0.2-1,0.3l3.4,5.7h-1.2l-3.3-5.6h-2V18h-1.1
	L84.8,6.1L84.8,6.1z"/>
<polygon class="st0" points="96.7,6.1 103.9,6.1 103.9,7.1 97.8,7.1 97.8,11.3 103.6,11.3 103.6,12.3 97.8,12.3 97.8,16.9 
	104.1,16.9 104.1,17.9 96.7,17.9 "/>
<path class="st0" d="M109.2,15.7c0.3,0.5,0.7,0.9,1.1,1.1c0.5,0.3,1,0.4,1.6,0.4c0.4,0,0.7-0.1,1-0.2c0.3-0.1,0.6-0.3,0.9-0.5
	c0.3-0.2,0.5-0.5,0.6-0.7c0.1-0.3,0.2-0.6,0.2-1s-0.1-0.7-0.3-1c-0.2-0.3-0.4-0.5-0.7-0.6c-0.3-0.2-0.6-0.3-1-0.5
	c-0.4-0.1-0.7-0.3-1.1-0.4c-0.4-0.1-0.8-0.3-1.1-0.4c-0.4-0.1-0.7-0.3-1-0.6c-0.2-0.3-0.5-0.6-0.7-0.9c-0.2-0.4-0.3-0.9-0.3-1.4
	c0-0.5,0.1-1,0.3-1.4c0.2-0.4,0.5-0.7,0.9-1c0.3-0.3,0.7-0.5,1.2-0.6c0.5-0.1,0.9-0.2,1.4-0.2c0.7,0,1.2,0.1,1.8,0.3
	c0.5,0.2,1,0.6,1.4,1.1l-1,0.7c-0.3-0.4-0.6-0.7-1-0.9c-0.4-0.2-0.8-0.3-1.3-0.3c-0.3,0-0.7,0.1-1,0.1c-0.3,0.1-0.6,0.3-0.9,0.4
	c-0.3,0.2-0.5,0.4-0.6,0.7c-0.1,0.3-0.2,0.6-0.2,1c0,0.6,0.1,1,0.5,1.4c0.3,0.3,0.7,0.6,1.1,0.7c0.5,0.2,0.9,0.3,1.4,0.5
	c0.5,0.1,1,0.3,1.4,0.6c0.5,0.3,0.9,0.6,1.1,1c0.3,0.4,0.5,1,0.5,1.7c0,0.5-0.1,1-0.3,1.4c-0.2,0.4-0.5,0.8-0.8,1
	c-0.3,0.3-0.7,0.5-1.2,0.7c-0.5,0.1-0.9,0.2-1.4,0.2c-0.8,0-1.5-0.1-2.2-0.4c-0.6-0.3-1.2-0.7-1.7-1.4L109.2,15.7z"/>
<rect x="120.5" y="6.1" class="st0" width="1.1" height="11.9"/>
<path class="st0" d="M128.1,16.9h2.3c0.8,0,1.5-0.1,2.2-0.3c0.7-0.2,1.2-0.5,1.8-0.9s0.9-0.9,1.2-1.5c0.3-0.6,0.5-1.4,0.5-2.2
	s-0.1-1.6-0.5-2.2c-0.3-0.6-0.6-1.1-1.2-1.5c-0.5-0.4-1.1-0.7-1.8-0.9c-0.7-0.2-1.4-0.3-2.2-0.3h-2.3V16.9z M127,6.1h3.7
	c1,0,1.9,0.1,2.6,0.4c0.7,0.3,1.3,0.6,1.8,1s0.9,0.9,1.1,1.3c0.3,0.5,0.5,0.9,0.6,1.4c0.1,0.5,0.2,0.9,0.3,1.2
	c0.1,0.3,0.1,0.6,0.1,0.7c0,0.1,0,0.4-0.1,0.7c-0.1,0.3-0.1,0.7-0.3,1.2c-0.1,0.5-0.3,0.9-0.6,1.4c-0.3,0.5-0.7,0.9-1.1,1.3
	c-0.5,0.4-1,0.7-1.8,1c-0.7,0.3-1.6,0.4-2.6,0.4H127V6.1z"/>
<polygon class="st0" points="141.8,6.1 149,6.1 149,7.1 142.9,7.1 142.9,11.3 148.7,11.3 148.7,12.3 142.9,12.3 142.9,16.9 
	149.3,16.9 149.3,17.9 141.8,17.9 "/>
<polygon class="st0" points="154.1,6.1 155.5,6.1 162.7,16.5 162.8,16.5 162.8,6.1 163.9,6.1 163.9,17.9 162.4,17.9 155.2,7.5 
	155.2,17.9 154.1,17.9 "/>
<polygon class="st0" points="171.9,7.1 167.9,7.1 167.9,6.1 177,6.1 177,7.1 173,7.1 173,17.9 171.9,17.9 171.9,7.1 "/>
<rect x="181.2" y="6.1" class="st0" width="1.1" height="11.9"/>
<path class="st0" d="M192.1,7.2l-2.7,6.5h5.4L192.1,7.2z M191.6,6.1h1.1l5,11.9h-1.2l-1.3-3.2h-6.2l-1.3,3.2h-1.2L191.6,6.1z"/>
<polygon class="st0" points="201.7,6.1 202.8,6.1 202.8,16.9 208.3,16.9 208.3,17.9 201.7,17.9 "/>
<path class="st0" d="M68.7,17.9h-2.6v-5.2h-5v5.2h-2.6V6.1H61v4.4h5V6.1h2.6V17.9z M54.3,18c-0.8,0.3-1.6,0.5-2.3,0.5
	c-0.9,0-1.8-0.2-2.6-0.5c-0.8-0.3-1.4-0.7-2-1.3c-0.5-0.5-1-1.2-1.3-2s-0.5-1.7-0.5-2.6c0-0.9,0.1-1.8,0.5-2.6s0.7-1.4,1.3-2
	c0.6-0.5,1.2-1,2-1.3C50.2,6.1,51,5.9,52,5.9c0.3,0,0.7,0,1,0.1c0.3,0,0.7,0.1,1,0.3c0.3,0.1,0.7,0.3,1,0.5c0.3,0.2,0.6,0.5,0.9,0.8
	l-2,1.7c-0.3-0.3-0.5-0.5-0.9-0.7c-0.4-0.2-0.9-0.3-1.3-0.3c-0.5,0-1,0.1-1.4,0.3c-0.5,0.2-0.8,0.5-1.1,0.8
	c-0.3,0.3-0.5,0.7-0.7,1.2c-0.2,0.5-0.3,1-0.3,1.5c0,0.5,0.1,1,0.3,1.5c0.2,0.5,0.4,0.9,0.7,1.2c0.3,0.3,0.7,0.6,1,0.8
	c0.4,0.2,0.9,0.3,1.3,0.3c0.6,0,1-0.1,1.4-0.3c0.4-0.2,0.8-0.5,1.1-0.7l2.2,1.7C55.7,17.2,55.1,17.7,54.3,18 M43,14.6
	c-0.3,0.8-0.7,1.4-1.3,2c-0.6,0.5-1.2,1-2,1.3c-0.8,0.3-1.6,0.5-2.6,0.5s-1.8-0.2-2.6-0.5c-0.8-0.3-1.4-0.7-2-1.3
	c-0.5-0.5-1-1.2-1.3-2c-0.3-0.8-0.5-1.7-0.5-2.6s0.1-1.8,0.5-2.6s0.7-1.4,1.3-2c0.6-0.5,1.2-1,2-1.3c0.8-0.3,1.6-0.5,2.6-0.5
	s1.8,0.2,2.6,0.5c0.8,0.3,1.4,0.7,2,1.3c0.5,0.5,1,1.2,1.3,2s0.5,1.7,0.5,2.6S43.3,13.8,43,14.6 M28.5,11.3
	c-0.2,0.5-0.5,0.9-0.9,1.1c-0.4,0.3-0.9,0.5-1.4,0.6c-0.5,0.1-1.1,0.2-1.7,0.2h-1.9v4.6H20V6h4.4c0.6,0,1.2,0.1,1.7,0.2
	c0.6,0.1,1,0.3,1.4,0.6c0.4,0.3,0.7,0.7,1,1c0.2,0.5,0.3,1,0.3,1.8C28.9,10.3,28.7,10.9,28.5,11.3 M17,17.9H8.7V6.1h8v2.5h-5.4v2.2
	h5.1v2.5h-5.1v2.4H17V17.9z M0,24h77.4V0H0V24z"/>
<path class="st0" d="M39.8,9.3c-0.3-0.3-0.7-0.6-1.2-0.8c-0.5-0.2-1-0.3-1.5-0.3s-1,0.1-1.5,0.3c-0.5,0.2-0.9,0.5-1.2,0.8
	c-0.3,0.3-0.5,0.7-0.7,1.2c-0.2,0.5-0.3,1-0.3,1.5s0.1,1,0.3,1.5c0.1,0.5,0.4,0.9,0.7,1.2c0.3,0.3,0.7,0.6,1.2,0.8
	c0.5,0.2,1,0.3,1.5,0.3c0.5,0,1-0.1,1.5-0.3c0.5-0.2,0.9-0.5,1.2-0.8c0.3-0.3,0.5-0.7,0.7-1.2c0.2-0.5,0.3-0.9,0.3-1.5
	c0-0.5-0.1-1-0.3-1.5C40.4,10,40.1,9.6,39.8,9.3"/>
<path class="st0" d="M25.4,8.5c-0.2-0.1-0.5-0.2-0.7-0.2c-0.3-0.1-0.5-0.1-0.8-0.1h-1.3v2.8h1.7c0.2,0,0.5,0,0.7-0.1
	c0.2,0,0.4-0.1,0.6-0.2c0.1-0.1,0.3-0.3,0.4-0.5c0.1-0.2,0.2-0.4,0.2-0.7S26.1,9.1,26,8.9C25.8,8.8,25.6,8.6,25.4,8.5"/>
<path class="st0" d="M210.4,7.2c0.1,0,0.2,0,0.3-0.1c0.1-0.1,0.1-0.1,0.1-0.2c0-0.1-0.1-0.1-0.1-0.2c-0.1,0-0.1-0.1-0.3-0.1h-0.3
	v0.5H210.4z M209.9,6.4h0.6h0.3c0.1,0,0.1,0.1,0.2,0.1c0.1,0.1,0.1,0.1,0.1,0.1c0.1,0.1,0.1,0.1,0.1,0.3c0,0.1-0.1,0.3-0.1,0.3
	c-0.1,0.1-0.2,0.1-0.3,0.1l0.5,0.8h-0.3l-0.4-0.7h-0.3v0.7h-0.3V6.4H209.9z M209.2,7.3c0,0.2,0.1,0.3,0.1,0.5
	c0.1,0.1,0.1,0.3,0.3,0.4c0.1,0.1,0.3,0.2,0.4,0.3c0.1,0.1,0.3,0.1,0.5,0.1c0.2,0,0.3-0.1,0.5-0.1c0.1-0.1,0.3-0.2,0.4-0.3
	c0.1-0.1,0.2-0.3,0.3-0.4c0.1-0.1,0.1-0.3,0.1-0.5s-0.1-0.3-0.1-0.5c-0.1-0.1-0.1-0.3-0.3-0.4c-0.1-0.1-0.3-0.2-0.4-0.3
	c-0.1-0.1-0.3-0.1-0.5-0.1c-0.2,0-0.3,0.1-0.5,0.1c-0.1,0.1-0.3,0.1-0.4,0.3c-0.1,0.1-0.2,0.3-0.3,0.4
	C209.2,6.9,209.2,7.1,209.2,7.3 M208.9,7.3c0-0.2,0.1-0.4,0.1-0.6c0.1-0.2,0.2-0.3,0.3-0.5c0.1-0.1,0.3-0.3,0.5-0.3
	c0.2-0.1,0.4-0.1,0.6-0.1s0.4,0.1,0.6,0.1c0.2,0.1,0.3,0.2,0.5,0.3c0.1,0.1,0.3,0.3,0.3,0.5c0.1,0.2,0.1,0.4,0.1,0.6
	s-0.1,0.4-0.1,0.6c-0.1,0.2-0.2,0.3-0.3,0.5c-0.1,0.1-0.3,0.3-0.5,0.3c-0.2,0.1-0.4,0.1-0.6,0.1c-0.2,0-0.4-0.1-0.6-0.1
	c-0.2-0.1-0.3-0.2-0.5-0.3c-0.1-0.1-0.3-0.3-0.3-0.5C209,7.7,208.9,7.5,208.9,7.3"/>
</svg>
