<?xml version="1.0" encoding="utf-8"?>
<!-- Generator: Adobe Illustrator 22.1.0, SVG Export Plug-In . SVG Version: 6.00 Build 0)  -->
<svg version="1.1" id="Layer_1" xmlns="http://www.w3.org/2000/svg" xmlns:xlink="http://www.w3.org/1999/xlink" x="0px" y="0px"
	 viewBox="0 0 111 21" style="enable-background:new 0 0 111 21;" xml:space="preserve">
<style type="text/css">
	.st0{fill:#FFFFFF;}
</style>
<path class="st0" d="M55.3,0h0.4c0.6,0.1,1.1,0.3,1.4,0.5c0.3,0.3,0.6,0.6,0.6,1.2c0,0.5-0.3,0.9-0.6,1.2c-0.3,0.3-0.8,0.5-1.4,0.5
	c0.1,1.2,0.2,2.3,0.3,3.5h5.7v1.6c-1.8,0-3.6,0-5.5,0c0,0.3,0.1,0.7,0.1,1.1c2.5,0,5,0,7.6,0c1.1,1.9,2.2,3.9,3.2,5.8
	c0.8-0.2,1.6-0.5,2.5-0.7c0.2,0.4,0.4,0.8,0.7,1.2v0c-1.5,0.4-2.9,0.9-4.4,1.3c-1.1-2-2.2-4.1-3.3-6.1h-8.1
	c-0.3-2.9-0.5-5.8-0.8-8.7c-0.4-0.5-0.3-1.3,0-1.7C53.9,0.4,54.4,0.1,55.3,0"/>
<path class="st0" d="M57.1,19.4h-1.3c-2.3-0.2-4-0.9-5.2-1.9c-1.2-1-2.2-2.3-2.3-4.2v-0.5c0.1-1.4,0.7-2.5,1.5-3.4
	c0.8-0.9,1.9-1.6,3.2-2.1c0.1,0.6,0.1,1.3,0.2,1.9c-0.8,0.4-1.4,0.9-1.9,1.5c-0.5,0.6-0.9,1.4-0.9,2.3c0,1,0.3,1.7,0.8,2.4
	c0.5,0.6,1.1,1.1,1.9,1.5c0.8,0.4,1.7,0.7,2.9,0.8c1.2,0.1,2.3-0.2,3.1-0.5c1.6-0.7,2.8-1.8,3.1-3.5c0.5,0.8,1,1.5,1.4,2.3
	C62.5,17.7,60.5,19,57.1,19.4"/>
<path class="st0" d="M18.9,0.9C21,1.6,22,3,21.4,4.8c-0.3,0.8-0.8,1.5-1.4,2.1c-0.7,0.7-1.8,1.1-3,0.8c-1.2-0.2-1.8-0.9-2.1-1.8
	c-0.5-1.6-0.1-3,1.4-4.2c0.5-0.4,1.3-0.6,2-0.9L18.9,0.9L18.9,0.9z"/>
<path class="st0" d="M27.4,9.2c-0.4,0.6-0.7,1.2-1.2,1.7c-0.6,0.5-1.4,0.9-2.2,1.1c-1.6,0.3-3-0.5-3.2-2c-0.3-1.5,1.2-3.3,3.1-3.7
	c1.4-0.4,2.7,0.1,3.3,1.1c0.1,0.1,0.2,0.2,0.3,0.3L27.4,9.2L27.4,9.2z"/>
<path class="st0" d="M13.4,19.2c-1.2,0.2-2.4,0.4-3.6,0.6c-0.8,0.1-1.6,0.3-2.3,0.2C4.8,19.9,3.2,18,4,15.8c0.4-0.9,1.1-1.6,1.9-2.3
	c1-0.8,2-1.7,3-2.6c0.5-0.5,1-1,1.5-1.5c1.7-1.4,4.5-1.4,6.2,0c0.6,0.5,1,1,1.5,1.5c0.9,0.8,1.7,1.7,2.7,2.4c1,0.8,1.8,1.6,2.2,2.7
	c0.8,2.5-1.9,4.5-5.4,3.9C16.2,19.7,14.8,19.5,13.4,19.2"/>
<path class="st0" d="M9.2,7.9C8.6,7.6,7.9,7.4,7.3,7c-1.6-1.1-2-3.2-1.1-4.7s2.9-1.8,4.5-0.7c1.7,1.1,2.2,3.5,1.1,4.9
	c-0.6,0.8-1.4,1.2-2.5,1.2C9.3,7.8,9.3,7.8,9.2,7.9"/>
<path class="st0" d="M6.4,9.3c0,1.9-1.2,2.9-2.9,2.7c-0.4,0-0.8-0.1-1.2-0.3C0.5,11-0.4,9.1,0.2,7.6c0.6-1.4,2.3-1.9,3.9-1.2
	C5.7,7.1,6.3,8.3,6.4,9.3"/>
<path class="st0" d="M97.3,0.6L97.3,0.6c4.6,1.8,9.1,3.6,13.7,5.4v2.7h-1.2c-0.1,2.5,0,5.2,0,7.8H85.2V8.7h-1.4V6
	C88.3,4.2,92.8,2.4,97.3,0.6 M88.3,6.9v7.1h18.5V7c-3.1-1.3-6.3-2.5-9.4-3.7C94.3,4.5,91.2,5.7,88.3,6.9"/>
<path class="st0" d="M92.7,7.6h9.4v1.9h-9.4L92.7,7.6C92.6,7.6,92.6,7.6,92.7,7.6"/>
<path class="st0" d="M92.7,10.5h9.4v1.9h-9.4L92.7,10.5C92.6,10.6,92.6,10.5,92.7,10.5"/>
<polygon class="st0" points="85.6,17 85.6,18.6 87.1,18.6 87.1,18.3 86,18.3 86,17.9 87,17.9 87,17.6 86,17.6 86,17.3 87.1,17.3 
	87.1,17 "/>
<path class="st0" d="M89.3,18.2c0,0.1-0.1,0.2-0.2,0.2l0.2,0.2l-0.2,0.2l-0.2-0.2c-0.1,0-0.2,0.1-0.2,0.1c-0.1,0-0.2,0-0.3,0
	c-0.3,0-0.5-0.1-0.7-0.2c-0.2-0.1-0.3-0.4-0.3-0.7c0-0.3,0.1-0.5,0.3-0.7c0.2-0.1,0.4-0.2,0.7-0.2c0.3,0,0.5,0.1,0.7,0.2
	c0.2,0.2,0.3,0.4,0.3,0.6C89.4,17.9,89.3,18.1,89.3,18.2 M88.5,18.4c0,0,0.1,0,0.1,0l-0.2-0.2l0.2-0.2l0.2,0.2
	c0-0.1,0.1-0.1,0.1-0.1c0-0.1,0-0.1,0-0.2c0-0.2-0.1-0.3-0.2-0.4c-0.1-0.1-0.2-0.1-0.4-0.1c-0.2,0-0.3,0.1-0.4,0.1
	c-0.1,0.1-0.2,0.2-0.2,0.4c0,0.2,0.1,0.4,0.2,0.5c0.1,0.1,0.2,0.1,0.3,0.1C88.4,18.4,88.5,18.4,88.5,18.4"/>
<path class="st0" d="M89.7,17h0.4v1c0,0.1,0,0.2,0.1,0.3c0.1,0.1,0.2,0.1,0.3,0.1c0.2,0,0.3,0,0.3-0.1c0-0.1,0.1-0.1,0.1-0.3v-1h0.4
	v1c0,0.2,0,0.3-0.1,0.4c-0.1,0.2-0.4,0.3-0.7,0.3s-0.6-0.1-0.7-0.3c-0.1-0.1-0.1-0.2-0.1-0.4L89.7,17L89.7,17z"/>
<path class="st0" d="M92.4,17l-0.7,1.6h0.5l0.1-0.3H93l0.1,0.3h0.5L92.9,17H92.4z M92.6,17.4l0.3,0.6h-0.5L92.6,17.4z"/>
<polygon class="st0" points="93.8,17 93.8,18.6 95.3,18.6 95.3,18.3 94.3,18.3 94.3,17 "/>
<polygon class="st0" points="97.6,17 97.6,17.6 96.8,17.6 96.8,17 96.3,17 96.3,18.6 96.8,18.6 96.8,17.9 97.6,17.9 97.6,18.6 
	98,18.6 98,17 "/>
<path class="st0" d="M100,18.5c-0.2,0.1-0.4,0.2-0.7,0.2c-0.3,0-0.5-0.1-0.7-0.2c-0.2-0.2-0.3-0.4-0.3-0.7c0-0.3,0.1-0.5,0.3-0.7
	c0.2-0.1,0.4-0.2,0.7-0.2c0.3,0,0.5,0.1,0.7,0.2c0.2,0.1,0.3,0.4,0.3,0.7C100.3,18.1,100.2,18.3,100,18.5 M99.8,18.2
	c0.1-0.1,0.2-0.2,0.2-0.4s-0.1-0.3-0.2-0.4c-0.1-0.1-0.2-0.1-0.4-0.1c-0.2,0-0.3,0.1-0.4,0.1c-0.1,0.1-0.2,0.2-0.2,0.4
	s0.1,0.3,0.2,0.4c0.1,0.1,0.2,0.1,0.4,0.1C99.5,18.4,99.7,18.3,99.8,18.2"/>
<path class="st0" d="M100.7,17h0.4v1c0,0.1,0,0.2,0.1,0.3c0.1,0.1,0.2,0.1,0.3,0.1c0.2,0,0.3,0,0.3-0.1c0-0.1,0.1-0.1,0.1-0.3v-1
	h0.4v1c0,0.2,0,0.3-0.1,0.4c-0.1,0.2-0.4,0.3-0.7,0.3c-0.4,0-0.6-0.1-0.7-0.3c-0.1-0.1-0.1-0.2-0.1-0.4L100.7,17L100.7,17z"/>
<path class="st0" d="M103.1,18.1c0,0.1,0,0.1,0.1,0.2c0.1,0.1,0.2,0.1,0.4,0.1c0.1,0,0.2,0,0.3,0c0.1,0,0.2-0.1,0.2-0.2
	c0-0.1,0-0.1-0.1-0.1c-0.1,0-0.2-0.1-0.3-0.1l-0.2,0c-0.2,0-0.4-0.1-0.5-0.1c-0.1-0.1-0.2-0.2-0.2-0.3c0-0.1,0.1-0.3,0.2-0.4
	c0.1-0.1,0.3-0.1,0.6-0.1c0.2,0,0.4,0.1,0.6,0.1c0.2,0.1,0.2,0.2,0.2,0.4h-0.4c0-0.1-0.1-0.2-0.2-0.2c-0.1,0-0.2,0-0.3,0
	c-0.1,0-0.2,0-0.3,0.1s-0.1,0.1-0.1,0.1c0,0.1,0,0.1,0.1,0.1c0,0,0.1,0,0.3,0.1l0.4,0.1c0.2,0,0.3,0.1,0.4,0.1
	c0.1,0.1,0.2,0.2,0.2,0.3s-0.1,0.3-0.2,0.4c-0.2,0.1-0.4,0.1-0.6,0.1c-0.3,0-0.5-0.1-0.6-0.1c-0.2-0.1-0.2-0.2-0.2-0.4L103.1,18.1
	L103.1,18.1z"/>
<rect x="104.6" y="17" class="st0" width="0.4" height="1.6"/>
<polygon class="st0" points="106.7,17 106.7,18.1 105.9,17 105.5,17 105.5,18.6 105.9,18.6 105.9,17.5 106.7,18.6 107.1,18.6 
	107.1,17 "/>
<path class="st0" d="M108.9,17.5c0-0.1-0.1-0.2-0.2-0.2c-0.1,0-0.2,0-0.2,0c-0.2,0-0.3,0.1-0.4,0.1c-0.1,0.1-0.2,0.2-0.2,0.4
	s0.1,0.3,0.2,0.4c0.1,0.1,0.3,0.1,0.4,0.1s0.3,0,0.4-0.1c0.1-0.1,0.2-0.1,0.2-0.3h-0.5v-0.3h0.9v0.9h-0.3l-0.1-0.2
	c-0.1,0.1-0.2,0.1-0.2,0.2c-0.1,0.1-0.3,0.1-0.4,0.1c-0.3,0-0.5-0.1-0.7-0.2c-0.2-0.1-0.3-0.4-0.3-0.6c0-0.3,0.1-0.5,0.3-0.6
	c0.2-0.2,0.4-0.2,0.7-0.2c0.3,0,0.5,0.1,0.6,0.2c0.2,0.1,0.3,0.2,0.3,0.4L108.9,17.5L108.9,17.5z"/>
<path class="st0" d="M87.1,20.8C87,20.9,86.8,21,86.5,21c-0.3,0-0.5-0.1-0.7-0.2c-0.2-0.2-0.3-0.4-0.3-0.7c0-0.3,0.1-0.5,0.3-0.7
	c0.2-0.1,0.4-0.2,0.7-0.2s0.5,0.1,0.7,0.2c0.2,0.1,0.3,0.4,0.3,0.7C87.4,20.4,87.3,20.7,87.1,20.8 M86.9,20.6
	c0.1-0.1,0.2-0.2,0.2-0.4s-0.1-0.3-0.2-0.4c-0.1-0.1-0.2-0.1-0.4-0.1c-0.2,0-0.3,0.1-0.4,0.1c-0.1,0.1-0.2,0.2-0.2,0.4
	s0.1,0.3,0.2,0.4c0.1,0.1,0.2,0.1,0.4,0.1C86.6,20.7,86.8,20.7,86.9,20.6"/>
<path class="st0" d="M89.5,20.3c-0.1,0.1-0.3,0.1-0.5,0.1h-0.4V21h-0.4v-1.6H89c0.2,0,0.4,0,0.5,0.1c0.1,0.1,0.2,0.2,0.2,0.4
	C89.7,20,89.6,20.2,89.5,20.3 M89.2,19.7c-0.1,0-0.1-0.1-0.2-0.1h-0.4v0.5h0.4c0.1,0,0.2,0,0.2-0.1c0.1,0,0.1-0.1,0.1-0.2
	C89.3,19.8,89.2,19.7,89.2,19.7"/>
<path class="st0" d="M91.8,20.3c-0.1,0.1-0.3,0.1-0.5,0.1h-0.4V21h-0.4v-1.6h0.9c0.2,0,0.4,0,0.5,0.1c0.1,0.1,0.2,0.2,0.2,0.4
	C92,20,91.9,20.2,91.8,20.3 M91.4,19.7c-0.1,0-0.1-0.1-0.2-0.1h-0.4v0.5h0.4c0.1,0,0.2,0,0.2-0.1c0.1,0,0.1-0.1,0.1-0.2
	C91.5,19.8,91.5,19.7,91.4,19.7"/>
<path class="st0" d="M94.3,20.8c-0.2,0.1-0.4,0.2-0.7,0.2c-0.3,0-0.5-0.1-0.7-0.2c-0.2-0.2-0.3-0.4-0.3-0.7c0-0.3,0.1-0.5,0.3-0.7
	c0.2-0.1,0.4-0.2,0.7-0.2c0.3,0,0.5,0.1,0.7,0.2c0.2,0.1,0.3,0.4,0.3,0.7C94.6,20.4,94.5,20.7,94.3,20.8 M94,20.6
	c0.1-0.1,0.2-0.2,0.2-0.4s-0.1-0.3-0.2-0.4c-0.1-0.1-0.2-0.1-0.4-0.1c-0.2,0-0.3,0.1-0.4,0.1C93.1,19.8,93,20,93,20.1
	s0.1,0.3,0.2,0.4c0.1,0.1,0.2,0.1,0.4,0.1C93.7,20.7,93.9,20.7,94,20.6"/>
<path class="st0" d="M96.6,19.4c0.1,0,0.1,0.1,0.2,0.1c0.1,0,0.1,0.1,0.1,0.1c0,0.1,0,0.1,0,0.2c0,0.1,0,0.2-0.1,0.2
	c-0.1,0.1-0.1,0.1-0.2,0.2c0.1,0,0.2,0.1,0.2,0.1c0,0.1,0.1,0.1,0.1,0.3v0.1c0,0.1,0,0.1,0,0.2s0,0.1,0.1,0.1v0h-0.5
	c0,0,0-0.1,0-0.1c0,0,0-0.1,0-0.1v-0.1c0-0.1,0-0.2-0.1-0.2c-0.1,0-0.1-0.1-0.3-0.1h-0.4v0.6h-0.4v-1.6h1
	C96.4,19.3,96.5,19.4,96.6,19.4 M95.7,19.6V20h0.5c0.1,0,0.2,0,0.2,0c0.1,0,0.1-0.1,0.1-0.2c0-0.1,0-0.2-0.1-0.2c-0.1,0-0.1,0-0.2,0
	H95.7z"/>
<polygon class="st0" points="97.5,19.3 97.5,19.6 98.1,19.6 98.1,20.9 98.5,20.9 98.5,19.6 99.2,19.6 99.2,19.3 "/>
<path class="st0" d="M99.8,19.3h0.4v1c0,0.1,0,0.2,0.1,0.2c0.1,0.1,0.2,0.1,0.3,0.1c0.2,0,0.3,0,0.4-0.1c0-0.1,0.1-0.1,0.1-0.2v-1
	h0.4v1c0,0.2,0,0.3-0.1,0.4c-0.1,0.2-0.4,0.3-0.7,0.3c-0.4,0-0.6-0.1-0.7-0.3c-0.1-0.1-0.1-0.2-0.1-0.4L99.8,19.3L99.8,19.3z"/>
<polygon class="st0" points="103.4,19.3 103.4,20.5 102.6,19.3 102.2,19.3 102.2,20.9 102.6,20.9 102.6,19.8 103.4,20.9 103.9,20.9 
	103.9,19.3 "/>
<rect x="104.6" y="19.3" class="st0" width="0.4" height="1.6"/>
<polygon class="st0" points="105.6,19.3 105.6,19.6 106.2,19.6 106.2,20.9 106.6,20.9 106.6,19.6 107.3,19.6 107.3,19.3 "/>
<polygon class="st0" points="109,19.3 108.6,20 108.2,19.3 107.7,19.3 108.4,20.4 108.4,20.9 108.8,20.9 108.8,20.4 109.5,19.3 "/>
</svg>
